<mxfile host="app.diagrams.net" modified="2024-05-22T12:55:39.710Z" agent="Mozilla/5.0 (Windows NT 10.0; Win64; x64) AppleWebKit/537.36 (KHTML, like Gecko) Chrome/124.0.0.0 Safari/537.36" etag="jAQ7mVRSYA0eOlbkA-Jz" version="24.4.0" type="github">
  <diagram name="Page-1" id="V5-h0DGCWCkEq7Fwikvd">
    <mxGraphModel dx="2074" dy="1150" grid="1" gridSize="10" guides="1" tooltips="1" connect="1" arrows="1" fold="1" page="1" pageScale="1" pageWidth="850" pageHeight="1100" math="0" shadow="0">
      <root>
        <mxCell id="0" />
        <mxCell id="1" parent="0" />
        <mxCell id="zX7HYccdnvJ7AWo0_-Y2-3" style="edgeStyle=orthogonalEdgeStyle;rounded=0;orthogonalLoop=1;jettySize=auto;html=1;exitX=0.5;exitY=1;exitDx=0;exitDy=0;entryX=0.5;entryY=0;entryDx=0;entryDy=0;" edge="1" parent="1" source="zX7HYccdnvJ7AWo0_-Y2-1" target="zX7HYccdnvJ7AWo0_-Y2-4">
          <mxGeometry relative="1" as="geometry" />
        </mxCell>
        <mxCell id="zX7HYccdnvJ7AWo0_-Y2-1" value="Doc&lt;div&gt;size: 2M&lt;/div&gt;" style="rounded=1;whiteSpace=wrap;html=1;" vertex="1" parent="1">
          <mxGeometry x="316" y="20" width="290" height="60" as="geometry" />
        </mxCell>
        <mxCell id="zX7HYccdnvJ7AWo0_-Y2-10" style="edgeStyle=orthogonalEdgeStyle;rounded=0;orthogonalLoop=1;jettySize=auto;html=1;exitX=0.5;exitY=1;exitDx=0;exitDy=0;entryX=0.5;entryY=0;entryDx=0;entryDy=0;" edge="1" parent="1" source="zX7HYccdnvJ7AWo0_-Y2-2" target="zX7HYccdnvJ7AWo0_-Y2-9">
          <mxGeometry relative="1" as="geometry" />
        </mxCell>
        <mxCell id="zX7HYccdnvJ7AWo0_-Y2-2" value="&lt;div&gt;sentences&lt;/div&gt;&lt;div&gt;17801&lt;/div&gt;" style="rounded=1;whiteSpace=wrap;html=1;" vertex="1" parent="1">
          <mxGeometry x="321" y="230" width="280" height="60" as="geometry" />
        </mxCell>
        <mxCell id="zX7HYccdnvJ7AWo0_-Y2-5" style="edgeStyle=orthogonalEdgeStyle;rounded=0;orthogonalLoop=1;jettySize=auto;html=1;exitX=0.5;exitY=1;exitDx=0;exitDy=0;entryX=0.5;entryY=0;entryDx=0;entryDy=0;" edge="1" parent="1" source="zX7HYccdnvJ7AWo0_-Y2-4" target="zX7HYccdnvJ7AWo0_-Y2-2">
          <mxGeometry relative="1" as="geometry" />
        </mxCell>
        <mxCell id="zX7HYccdnvJ7AWo0_-Y2-4" value="NLTK&lt;div&gt;sent_tokenizer&lt;/div&gt;" style="rhombus;whiteSpace=wrap;html=1;" vertex="1" parent="1">
          <mxGeometry x="401" y="110" width="120" height="80" as="geometry" />
        </mxCell>
        <mxCell id="zX7HYccdnvJ7AWo0_-Y2-7" value="&lt;div&gt;4 threads&lt;/div&gt;" style="rounded=1;whiteSpace=wrap;html=1;verticalAlign=top;" vertex="1" parent="1">
          <mxGeometry x="191" y="570" width="553" height="100" as="geometry" />
        </mxCell>
        <mxCell id="zX7HYccdnvJ7AWo0_-Y2-12" style="edgeStyle=orthogonalEdgeStyle;rounded=0;orthogonalLoop=1;jettySize=auto;html=1;exitX=0.5;exitY=1;exitDx=0;exitDy=0;" edge="1" parent="1" source="zX7HYccdnvJ7AWo0_-Y2-8" target="zX7HYccdnvJ7AWo0_-Y2-7">
          <mxGeometry relative="1" as="geometry" />
        </mxCell>
        <mxCell id="zX7HYccdnvJ7AWo0_-Y2-8" value="&lt;div&gt;45 batches&lt;/div&gt;" style="rounded=1;whiteSpace=wrap;html=1;" vertex="1" parent="1">
          <mxGeometry x="327" y="440" width="280" height="60" as="geometry" />
        </mxCell>
        <mxCell id="zX7HYccdnvJ7AWo0_-Y2-9" value="400 sentences per batch" style="rhombus;whiteSpace=wrap;html=1;" vertex="1" parent="1">
          <mxGeometry x="371.5" y="320" width="179" height="80" as="geometry" />
        </mxCell>
        <mxCell id="zX7HYccdnvJ7AWo0_-Y2-11" style="edgeStyle=orthogonalEdgeStyle;rounded=0;orthogonalLoop=1;jettySize=auto;html=1;exitX=0.5;exitY=1;exitDx=0;exitDy=0;entryX=0.479;entryY=0.011;entryDx=0;entryDy=0;entryPerimeter=0;" edge="1" parent="1" source="zX7HYccdnvJ7AWo0_-Y2-9" target="zX7HYccdnvJ7AWo0_-Y2-8">
          <mxGeometry relative="1" as="geometry" />
        </mxCell>
        <mxCell id="zX7HYccdnvJ7AWo0_-Y2-13" value="Embedding model" style="ellipse;whiteSpace=wrap;html=1;" vertex="1" parent="1">
          <mxGeometry x="870" y="670" width="210" height="150" as="geometry" />
        </mxCell>
        <mxCell id="zX7HYccdnvJ7AWo0_-Y2-29" style="edgeStyle=orthogonalEdgeStyle;rounded=0;orthogonalLoop=1;jettySize=auto;html=1;exitX=0.5;exitY=1;exitDx=0;exitDy=0;entryX=0;entryY=0.5;entryDx=0;entryDy=0;" edge="1" parent="1" source="zX7HYccdnvJ7AWo0_-Y2-22" target="zX7HYccdnvJ7AWo0_-Y2-13">
          <mxGeometry relative="1" as="geometry" />
        </mxCell>
        <mxCell id="zX7HYccdnvJ7AWo0_-Y2-22" value="thread" style="ellipse;whiteSpace=wrap;html=1;" vertex="1" parent="1">
          <mxGeometry x="210" y="610" width="130" height="50" as="geometry" />
        </mxCell>
        <mxCell id="zX7HYccdnvJ7AWo0_-Y2-28" style="edgeStyle=orthogonalEdgeStyle;rounded=0;orthogonalLoop=1;jettySize=auto;html=1;exitX=0.5;exitY=1;exitDx=0;exitDy=0;entryX=0;entryY=0.5;entryDx=0;entryDy=0;" edge="1" parent="1" source="zX7HYccdnvJ7AWo0_-Y2-23" target="zX7HYccdnvJ7AWo0_-Y2-13">
          <mxGeometry relative="1" as="geometry" />
        </mxCell>
        <mxCell id="zX7HYccdnvJ7AWo0_-Y2-23" value="thread" style="ellipse;whiteSpace=wrap;html=1;" vertex="1" parent="1">
          <mxGeometry x="350" y="610" width="130" height="50" as="geometry" />
        </mxCell>
        <mxCell id="zX7HYccdnvJ7AWo0_-Y2-27" style="edgeStyle=orthogonalEdgeStyle;rounded=0;orthogonalLoop=1;jettySize=auto;html=1;exitX=0.5;exitY=1;exitDx=0;exitDy=0;entryX=0;entryY=0.5;entryDx=0;entryDy=0;" edge="1" parent="1" source="zX7HYccdnvJ7AWo0_-Y2-24" target="zX7HYccdnvJ7AWo0_-Y2-13">
          <mxGeometry relative="1" as="geometry" />
        </mxCell>
        <mxCell id="zX7HYccdnvJ7AWo0_-Y2-24" value="thread" style="ellipse;whiteSpace=wrap;html=1;" vertex="1" parent="1">
          <mxGeometry x="480" y="610" width="130" height="50" as="geometry" />
        </mxCell>
        <mxCell id="zX7HYccdnvJ7AWo0_-Y2-26" style="edgeStyle=orthogonalEdgeStyle;rounded=0;orthogonalLoop=1;jettySize=auto;html=1;exitX=0.5;exitY=1;exitDx=0;exitDy=0;entryX=0;entryY=0.5;entryDx=0;entryDy=0;" edge="1" parent="1" source="zX7HYccdnvJ7AWo0_-Y2-25" target="zX7HYccdnvJ7AWo0_-Y2-13">
          <mxGeometry relative="1" as="geometry" />
        </mxCell>
        <mxCell id="zX7HYccdnvJ7AWo0_-Y2-25" value="thread" style="ellipse;whiteSpace=wrap;html=1;" vertex="1" parent="1">
          <mxGeometry x="610" y="610" width="130" height="50" as="geometry" />
        </mxCell>
      </root>
    </mxGraphModel>
  </diagram>
</mxfile>
